<?xml version="1.0" encoding="utf-8"?>
<!-- Generator: Adobe Illustrator 22.0.0, SVG Export Plug-In . SVG Version: 6.00 Build 0)  -->
<svg version="1.1" id="Layer_1" xmlns="http://www.w3.org/2000/svg" xmlns:xlink="http://www.w3.org/1999/xlink" x="0px" y="0px"
	 viewBox="0 0 291.3 291.3" style="enable-background:new 0 0 291.3 291.3;" xml:space="preserve">
<style type="text/css">
	.st0{fill:url(#SVGID_1_);}
	.st1{fill:#FFFFFF;}
</style>
<linearGradient id="SVGID_1_" gradientUnits="userSpaceOnUse" x1="0.5" y1="21225.6816" x2="291.319" y2="21225.6816" gradientTransform="matrix(1 0 0 1 0 -21080.7715)">
	<stop  offset="0" style="stop-color:#00F38D"/>
	<stop  offset="1" style="stop-color:#009EFF"/>
</linearGradient>
<path class="st0" d="M291.3,144.9c0,80.3-65.1,145.4-145.4,145.4S0.5,225.2,0.5,144.9S65.6-0.5,145.9-0.5S291.3,64.6,291.3,144.9z"
	/>
<g>
	<path class="st1" d="M187.7,245.4h-83.7c-32.4,0-58.7-26.3-58.7-58.7v-83.7c0-32.4,26.3-58.7,58.7-58.7h83.7
		c32.4,0,58.7,26.3,58.7,58.7v83.7C246.4,219.1,220.1,245.4,187.7,245.4z M104.1,61.4c-23,0-41.7,18.7-41.7,41.7v83.7
		c0,23,18.7,41.7,41.7,41.7h83.7c23,0,41.7-18.7,41.7-41.7v-83.7c0-23-18.7-41.7-41.7-41.7H104.1z"/>
	<path class="st1" d="M145.9,199.4c-30.1,0-54.5-24.5-54.5-54.5s24.5-54.5,54.5-54.5s54.5,24.5,54.5,54.5S176,199.4,145.9,199.4z
		 M145.9,107.4c-20.7,0-37.5,16.8-37.5,37.5s16.8,37.5,37.5,37.5s37.5-16.8,37.5-37.5S166.6,107.4,145.9,107.4z"/>
	<path class="st1" d="M208.3,90.3c0,4.3-3.5,7.8-7.8,7.8c-4.3,0-7.8-3.5-7.8-7.8s3.5-7.8,7.8-7.8C204.8,82.5,208.3,86,208.3,90.3z"
		/>
</g>
</svg>
